# xmcd
#
# Track frame offsets:
#	151
#	15579
#	28682
#	45462
#	62466
#	79166
#	97667
#	110545
#	126647
#	136971
#
# Disc length: 2026 seconds
#
# Revision: 1
# Processed by: cddbd v1.5.2PL0 Copyright (c) Steve Scherf et al.
# Submitted via: audiograbber 1.83.01
#
DISCID=7907e80a
DTITLE=Jensen - Introdoucing Jensen
DYEAR=2003
DGENRE=Country
TTITLE0=Hard To Be Lonely
TTITLE1=Ain´t Got Nothingg On You
TTITLE2=I Never Will
TTITLE3=Then It´s Aur Turn To Dance
TTITLE4=Dancing In The Dark
TTITLE5=You May Be Right
TTITLE6=I Knew You When
TTITLE7=Last Broken Heart
TTITLE8=She Wasn´t Thinking
TTITLE9=No One Loves Here Anymore
EXTD=
EXTT0=
EXTT1=
EXTT2=
EXTT3=
EXTT4=
EXTT5=
EXTT6=
EXTT7=
EXTT8=
EXTT9=
PLAYORDER=
